<?xml version="1.0" encoding="UTF-8"?><svg id="Layer_1" xmlns="http://www.w3.org/2000/svg" xmlns:xlink="http://www.w3.org/1999/xlink" viewBox="0 0 145 20"><defs><style>.cls-1{fill:#555;}.cls-2{fill:#fff;}.cls-3{fill:#8661c5;}.cls-4{fill:url(#linear-gradient);}.cls-5{fill:#010101;}</style><linearGradient id="linear-gradient" x1="-59.775" y1="45.35" x2="-59.775" y2="46.35" gradientTransform="translate(6588 -907) scale(109 20)" gradientUnits="userSpaceOnUse"><stop offset="0" stop-color="#bbb" stop-opacity=".1"/><stop offset="1" stop-color="#000" stop-opacity=".1"/></linearGradient></defs><path class="cls-1" d="M3,0h61V20H3c-1.657,0-3-1.343-3-3V3C0,1.343,1.343,0,3,0Z"/><path class="cls-3" d="M64,0h78c1.657,0,3,1.343,3,3v14c0,1.657-1.343,3-3,3H64V0Z"/><path class="cls-4" d="M3,0H142c1.657,0,3,1.343,3,3v14c0,1.657-1.343,3-3,3H3c-1.657,0-3-1.343-3-3V3C0,1.343,1.343,0,3,0Z"/><g><path class="cls-5" d="M25.395,15h-1.01V6.643h1.01V15Z"/><path class="cls-5" d="M32.208,15h-1.005v-.639c-.09,.061-.21,.146-.362,.255s-.3,.196-.443,.261c-.168,.082-.361,.15-.58,.206s-.475,.083-.768,.083c-.541,0-1-.179-1.375-.537-.377-.357-.564-.814-.564-1.369,0-.455,.098-.822,.293-1.104s.474-.502,.835-.664c.365-.16,.804-.27,1.315-.327,.513-.058,1.062-.101,1.649-.129v-.155c0-.229-.04-.42-.121-.57-.08-.15-.196-.268-.347-.354-.143-.083-.314-.139-.516-.167-.2-.028-.409-.043-.628-.043-.265,0-.561,.035-.886,.104-.326,.07-.663,.172-1.01,.304h-.055v-1.026c.197-.053,.482-.112,.854-.177s.739-.097,1.101-.097c.423,0,.791,.035,1.104,.104,.313,.07,.584,.188,.813,.357,.226,.165,.397,.378,.516,.64,.118,.261,.178,.585,.178,.972v4.071h.002Zm-1.005-1.476v-1.671c-.308,.019-.671,.045-1.088,.081-.417,.035-.747,.087-.991,.155-.289,.082-.524,.21-.703,.384s-.269,.413-.269,.717c0,.344,.104,.603,.312,.776s.524,.261,.951,.261c.354,0,.678-.069,.972-.207s.565-.303,.816-.496Z"/><path class="cls-5" d="M39.277,15h-1.01v-.666c-.34,.269-.666,.475-.977,.617-.312,.144-.656,.215-1.031,.215-.631,0-1.121-.192-1.473-.577-.351-.385-.525-.949-.525-1.694v-3.895h1.01v3.416c0,.305,.014,.565,.043,.782,.028,.217,.089,.401,.182,.556,.098,.157,.223,.272,.377,.344,.153,.071,.377,.107,.671,.107,.262,0,.547-.068,.856-.204s.6-.31,.867-.521v-4.48h1.01v6Z"/><path class="cls-5" d="M46.434,15h-1.01v-3.416c0-.275-.016-.534-.048-.776-.032-.241-.091-.431-.177-.566-.09-.15-.219-.263-.387-.336-.169-.073-.387-.11-.656-.11-.275,0-.563,.068-.864,.205-.301,.136-.589,.309-.864,.521v4.479h-1.01v-6h1.01v.666c.314-.261,.641-.465,.977-.611,.337-.147,.683-.221,1.037-.221,.648,0,1.143,.195,1.482,.586,.34,.39,.51,.952,.51,1.686v3.893Z"/><path class="cls-5" d="M52.967,14.624c-.336,.161-.655,.286-.958,.376s-.624,.135-.964,.135c-.434,0-.831-.064-1.193-.191-.361-.127-.671-.319-.929-.577-.262-.258-.464-.584-.606-.978-.144-.394-.215-.854-.215-1.381,0-.98,.269-1.75,.808-2.309s1.251-.838,2.136-.838c.344,0,.681,.048,1.012,.145s.635,.215,.91,.354v1.122h-.053c-.309-.239-.626-.424-.954-.553-.327-.129-.647-.193-.958-.193-.573,0-1.025,.192-1.356,.577-.331,.386-.497,.95-.497,1.694,0,.724,.162,1.279,.486,1.668s.779,.583,1.367,.583c.203,0,.411-.026,.623-.081,.211-.053,.4-.123,.568-.209,.147-.075,.285-.155,.414-.239s.23-.156,.307-.218h.053v1.112h-.001Z"/><path class="cls-5" d="M59.43,15h-1.01v-3.416c0-.275-.016-.534-.048-.776-.032-.241-.091-.431-.177-.566-.09-.15-.219-.263-.387-.336-.169-.073-.387-.11-.656-.11-.275,0-.563,.068-.864,.205-.301,.136-.589,.309-.864,.521v4.479h-1.01V6.643h1.01v3.023c.314-.261,.641-.465,.977-.611,.337-.147,.683-.221,1.037-.221,.648,0,1.143,.195,1.482,.586,.34,.39,.51,.952,.51,1.686v3.895h0Z"/></g><g><path class="cls-2" d="M25.395,14h-1.01V5.643h1.01V14Z"/><path class="cls-2" d="M32.208,14h-1.005v-.639c-.09,.061-.21,.146-.362,.255s-.3,.196-.443,.261c-.168,.082-.361,.15-.58,.206s-.475,.083-.768,.083c-.541,0-1-.179-1.375-.537-.377-.357-.564-.814-.564-1.369,0-.455,.098-.822,.293-1.104s.474-.502,.835-.664c.365-.16,.804-.27,1.315-.327,.513-.058,1.062-.101,1.649-.129v-.155c0-.229-.04-.42-.121-.57-.08-.15-.196-.268-.347-.354-.143-.083-.314-.139-.516-.167-.2-.028-.409-.043-.628-.043-.265,0-.561,.035-.886,.104-.326,.07-.663,.172-1.01,.304h-.055v-1.026c.197-.053,.482-.112,.854-.177s.739-.097,1.101-.097c.423,0,.791,.035,1.104,.104,.313,.07,.584,.188,.813,.357,.226,.165,.397,.378,.516,.64,.118,.261,.178,.585,.178,.972v4.071h.002Zm-1.005-1.476v-1.671c-.308,.019-.671,.045-1.088,.081-.417,.035-.747,.088-.991,.155-.289,.083-.524,.21-.703,.384s-.269,.413-.269,.717c0,.344,.104,.603,.312,.776s.524,.261,.951,.261c.354,0,.678-.069,.972-.207s.565-.303,.816-.496Z"/><path class="cls-2" d="M39.277,14h-1.01v-.666c-.34,.269-.666,.475-.977,.617-.312,.144-.656,.215-1.031,.215-.631,0-1.121-.192-1.473-.577-.351-.385-.525-.949-.525-1.694v-3.895h1.01v3.416c0,.305,.014,.565,.043,.782,.028,.217,.089,.401,.182,.556,.098,.157,.223,.272,.377,.344,.153,.071,.377,.107,.671,.107,.262,0,.547-.068,.856-.204s.6-.31,.867-.521V8h1.01v6Z"/><path class="cls-2" d="M46.434,14h-1.01v-3.416c0-.275-.016-.534-.048-.776-.032-.241-.091-.431-.177-.566-.09-.15-.219-.263-.387-.336-.169-.073-.387-.11-.656-.11-.275,0-.563,.068-.864,.205-.301,.136-.589,.309-.864,.521v4.479h-1.01v-6h1.01v.666c.314-.261,.641-.465,.977-.611,.337-.147,.683-.221,1.037-.221,.648,0,1.143,.195,1.482,.586,.34,.39,.51,.952,.51,1.686v3.893Z"/><path class="cls-2" d="M52.967,13.624c-.336,.161-.655,.286-.958,.376s-.624,.135-.964,.135c-.434,0-.831-.064-1.193-.191-.361-.127-.671-.319-.929-.577-.262-.258-.464-.584-.606-.978-.144-.395-.215-.854-.215-1.381,0-.98,.269-1.75,.808-2.309s1.251-.838,2.136-.838c.344,0,.681,.048,1.012,.145s.635,.215,.91,.354v1.122h-.053c-.309-.239-.626-.424-.954-.553-.327-.129-.647-.193-.958-.193-.573,0-1.025,.192-1.356,.577-.331,.386-.497,.95-.497,1.694,0,.724,.162,1.279,.486,1.668s.779,.583,1.367,.583c.203,0,.411-.026,.623-.081,.211-.053,.4-.123,.568-.209,.147-.075,.285-.155,.414-.239s.23-.156,.307-.218h.053v1.112h-.001Z"/><path class="cls-2" d="M59.43,14h-1.01v-3.416c0-.275-.016-.534-.048-.776-.032-.241-.091-.431-.177-.566-.09-.15-.219-.263-.387-.336-.169-.073-.387-.11-.656-.11-.275,0-.563,.068-.864,.205-.301,.136-.589,.309-.864,.521v4.479h-1.01V5.643h1.01v3.023c.314-.261,.641-.465,.977-.611,.337-.147,.683-.221,1.037-.221,.648,0,1.143,.195,1.482,.586,.34,.39,.51,.952,.51,1.686v3.895h0Z"/></g><g><path d="M74.88,7.002l-2.911,7.998h-1.418l-2.911-7.998h1.139l2.509,7.037,2.508-7.037h1.084Z"/><path d="M77.098,7.996h-1.139v-1.047h1.139v1.047Zm-.064,7.004h-1.01v-6h1.01v6Z"/><path d="M83.318,13.271c0,.548-.227,.997-.68,1.349-.453,.351-1.072,.525-1.855,.525-.444,0-.852-.053-1.223-.158-.37-.105-.682-.221-.932-.346v-1.134h.054c.319,.239,.673,.431,1.063,.572s.765,.212,1.123,.212c.443,0,.791-.072,1.041-.215,.251-.143,.377-.369,.377-.677,0-.236-.068-.415-.205-.537-.136-.122-.396-.226-.783-.312-.144-.032-.331-.07-.562-.113-.231-.043-.441-.089-.632-.139-.525-.141-.899-.346-1.119-.615-.221-.271-.33-.603-.33-.996,0-.248,.051-.48,.152-.699,.103-.218,.258-.413,.465-.585,.201-.169,.455-.302,.766-.4,.31-.099,.656-.147,1.039-.147,.357,0,.721,.044,1.088,.132,.367,.087,.672,.194,.916,.319v1.08h-.055c-.258-.19-.57-.351-.939-.481s-.73-.196-1.085-.196c-.368,0-.681,.071-.935,.213-.254,.141-.381,.352-.381,.631,0,.247,.076,.434,.23,.559,.15,.125,.395,.228,.73,.307,.186,.043,.395,.086,.626,.129,.23,.043,.423,.082,.577,.117,.469,.107,.83,.293,1.085,.554,.255,.265,.382,.616,.382,1.053l.002-.002Z"/><path d="M89.736,15h-1.01v-.666c-.34,.269-.666,.475-.978,.617-.312,.144-.655,.215-1.031,.215-.63,0-1.12-.191-1.472-.577-.352-.385-.526-.95-.526-1.694v-3.895h1.01v3.416c0,.305,.015,.565,.043,.782,.028,.216,.089,.401,.183,.556,.097,.158,.223,.271,.376,.344s.378,.107,.671,.107c.262,0,.547-.068,.857-.204,.31-.136,.599-.31,.867-.521v-4.48h1.01v6Z"/><path d="M96.386,15h-1.005v-.639c-.089,.061-.21,.146-.361,.255-.152,.108-.301,.196-.443,.261-.169,.082-.362,.15-.58,.206-.219,.056-.475,.083-.769,.083-.54,0-.999-.179-1.375-.537-.376-.357-.563-.814-.563-1.369,0-.455,.098-.822,.293-1.104,.194-.281,.473-.502,.834-.664,.365-.16,.805-.27,1.316-.327s1.062-.101,1.648-.129v-.155c0-.229-.039-.42-.121-.57-.08-.15-.195-.268-.346-.354-.143-.083-.314-.139-.516-.167s-.41-.043-.629-.043c-.265,0-.561,.035-.886,.104-.325,.07-.663,.172-1.01,.304h-.054v-1.026c.197-.053,.481-.112,.854-.177,.373-.064,.74-.097,1.102-.097,.422,0,.791,.035,1.104,.104,.313,.07,.585,.188,.814,.357,.225,.165,.396,.378,.516,.64,.117,.261,.177,.585,.177,.972v4.071h0Zm-1.005-1.476v-1.671c-.308,.019-.67,.045-1.088,.081-.416,.035-.746,.088-.99,.155-.29,.083-.524,.21-.703,.384-.18,.174-.27,.413-.27,.717,0,.344,.104,.604,.312,.776,.207,.174,.523,.261,.95,.261,.354,0,.679-.068,.972-.207,.294-.138,.566-.303,.816-.496h0Z"/><path d="M99.351,15h-1.01V6.643h1.01V15Z"/><path d="M111.107,12.717c0,.312-.072,.62-.217,.924-.145,.305-.349,.562-.609,.773-.287,.229-.621,.408-1.002,.537s-.841,.193-1.378,.193c-.577,0-1.095-.053-1.556-.16-.459-.107-.928-.268-1.404-.479v-1.332h.076c.404,.336,.871,.596,1.401,.779,.53,.182,1.028,.273,1.493,.273,.658,0,1.172-.123,1.539-.371,.367-.246,.551-.576,.551-.988,0-.354-.088-.615-.262-.783-.173-.169-.438-.299-.791-.393-.27-.072-.561-.131-.873-.178-.313-.046-.646-.105-.996-.177-.709-.15-1.234-.407-1.576-.771-.343-.363-.514-.838-.514-1.421,0-.669,.283-1.218,.849-1.646,.565-.428,1.284-.642,2.153-.642,.562,0,1.078,.054,1.547,.161,.47,.107,.885,.239,1.246,.397v1.257h-.074c-.305-.258-.705-.472-1.201-.642s-1.004-.256-1.522-.256c-.569,0-1.026,.119-1.372,.355s-.519,.54-.519,.912c0,.334,.086,.595,.258,.785,.172,.189,.475,.334,.907,.435,.229,.05,.556,.11,.979,.183,.422,.072,.78,.145,1.074,.221,.594,.157,1.041,.395,1.342,.714s.451,.765,.451,1.337v.003Z"/><path d="M115.851,14.946c-.19,.05-.396,.091-.62,.124-.225,.031-.424,.048-.6,.048-.611,0-1.077-.165-1.396-.494-.318-.329-.478-.857-.478-1.585v-3.189h-.683v-.85h.683v-1.724h1.01v1.724h2.084v.85h-2.084v2.733c0,.315,.007,.562,.021,.738,.015,.178,.064,.343,.15,.497,.079,.143,.187,.248,.325,.314s.348,.1,.631,.1c.164,0,.336-.024,.516-.073,.18-.048,.309-.089,.387-.12h.054v.907Z"/><path d="M122.043,15h-1.01v-.666c-.34,.269-.666,.475-.977,.617-.312,.144-.656,.215-1.031,.215-.631,0-1.121-.191-1.473-.577-.351-.385-.525-.95-.525-1.694v-3.895h1.01v3.416c0,.305,.014,.565,.043,.782,.028,.216,.089,.401,.182,.556,.098,.158,.223,.271,.377,.344,.153,.072,.377,.107,.671,.107,.261,0,.547-.068,.856-.204,.311-.136,.6-.31,.867-.521v-4.48h1.01v6Z"/><path d="M128.896,15h-1.01v-.629c-.289,.251-.592,.446-.907,.586s-.657,.209-1.026,.209c-.716,0-1.284-.275-1.705-.826-.42-.552-.631-1.316-.631-2.294,0-.509,.072-.962,.218-1.358,.145-.398,.341-.736,.588-1.016,.243-.271,.527-.48,.852-.623,.323-.143,.659-.215,1.007-.215,.314,0,.594,.033,.838,.1s.5,.169,.768,.309v-2.6h1.01V15h-.002Zm-1.01-1.477v-3.443c-.271-.121-.516-.206-.73-.252-.215-.047-.449-.07-.703-.07-.566,0-1.006,.197-1.321,.591s-.473,.952-.473,1.676c0,.712,.122,1.254,.365,1.625,.243,.37,.634,.556,1.171,.556,.287,0,.576-.063,.87-.19,.294-.128,.567-.291,.821-.491v-.002Z"/><path d="M131.969,7.996h-1.139v-1.047h1.139v1.047Zm-.064,7.004h-1.01v-6h1.01v6Z"/><path d="M139.016,12.003c0,.978-.25,1.749-.752,2.315-.501,.565-1.172,.848-2.014,.848-.849,0-1.522-.282-2.022-.848-.499-.566-.749-1.338-.749-2.315s.25-1.75,.749-2.317c.5-.568,1.174-.852,2.022-.852,.842,0,1.513,.283,2.014,.852,.502,.567,.752,1.34,.752,2.317Zm-1.041,0c0-.776-.152-1.354-.457-1.732s-.727-.566-1.268-.566c-.548,0-.973,.188-1.275,.566s-.454,.956-.454,1.732c0,.752,.152,1.322,.456,1.711,.305,.388,.729,.583,1.273,.583,.537,0,.959-.193,1.265-.578,.307-.385,.46-.957,.46-1.716Z"/></g><g><path class="cls-2" d="M74.88,6.002l-2.911,7.998h-1.418l-2.911-7.998h1.139l2.509,7.037,2.508-7.037h1.084Z"/><path class="cls-2" d="M77.098,6.996h-1.139v-1.047h1.139v1.047Zm-.064,7.004h-1.01v-6h1.01v6Z"/><path class="cls-2" d="M83.318,12.271c0,.548-.227,.997-.68,1.349-.453,.351-1.072,.525-1.855,.525-.444,0-.852-.053-1.223-.158-.37-.105-.682-.221-.932-.346v-1.134h.054c.319,.239,.673,.431,1.063,.572s.765,.212,1.123,.212c.443,0,.791-.072,1.041-.215,.251-.143,.377-.369,.377-.677,0-.236-.068-.415-.205-.537-.136-.122-.396-.226-.783-.312-.144-.032-.331-.07-.562-.113-.231-.043-.441-.089-.632-.139-.525-.141-.899-.346-1.119-.615-.221-.271-.33-.603-.33-.996,0-.248,.051-.48,.152-.699,.103-.218,.258-.413,.465-.585,.201-.169,.455-.302,.766-.4,.31-.099,.656-.147,1.039-.147,.357,0,.721,.044,1.088,.132,.367,.087,.672,.194,.916,.319v1.08h-.055c-.258-.19-.57-.351-.939-.481s-.73-.196-1.085-.196c-.368,0-.681,.071-.935,.213-.254,.141-.381,.352-.381,.631,0,.247,.076,.434,.23,.559,.15,.125,.395,.228,.73,.307,.186,.043,.395,.086,.626,.129,.23,.043,.423,.082,.577,.117,.469,.107,.83,.293,1.085,.554,.255,.265,.382,.616,.382,1.053l.002-.002Z"/><path class="cls-2" d="M89.736,14h-1.01v-.666c-.34,.269-.666,.475-.978,.617-.312,.144-.655,.215-1.031,.215-.63,0-1.12-.191-1.472-.577-.352-.385-.526-.95-.526-1.694v-3.895h1.01v3.416c0,.305,.015,.565,.043,.782,.028,.216,.089,.401,.183,.556,.097,.158,.223,.271,.376,.344s.378,.107,.671,.107c.262,0,.547-.068,.857-.204,.31-.136,.599-.31,.867-.521V8h1.01v6Z"/><path class="cls-2" d="M96.386,14h-1.005v-.639c-.089,.061-.21,.146-.361,.255-.152,.108-.301,.196-.443,.261-.169,.082-.362,.15-.58,.206-.219,.056-.475,.083-.769,.083-.54,0-.999-.179-1.375-.537-.376-.357-.563-.814-.563-1.369,0-.455,.098-.822,.293-1.104,.194-.281,.473-.502,.834-.664,.365-.16,.805-.27,1.316-.327s1.062-.101,1.648-.129v-.155c0-.229-.039-.42-.121-.57-.08-.15-.195-.268-.346-.354-.143-.083-.314-.139-.516-.167s-.41-.043-.629-.043c-.265,0-.561,.035-.886,.104-.325,.07-.663,.172-1.01,.304h-.054v-1.026c.197-.053,.481-.112,.854-.177,.373-.064,.74-.097,1.102-.097,.422,0,.791,.035,1.104,.104,.313,.07,.585,.188,.814,.357,.225,.165,.396,.378,.516,.64,.117,.261,.177,.585,.177,.972v4.071h0Zm-1.005-1.476v-1.671c-.308,.019-.67,.045-1.088,.081-.416,.035-.746,.088-.99,.155-.29,.083-.524,.21-.703,.384-.18,.174-.27,.413-.27,.717,0,.344,.104,.604,.312,.776,.207,.174,.523,.261,.95,.261,.354,0,.679-.068,.972-.207,.294-.138,.566-.303,.816-.496h0Z"/><path class="cls-2" d="M99.351,14h-1.01V5.643h1.01V14Z"/><path class="cls-2" d="M111.107,11.717c0,.312-.072,.62-.217,.924-.145,.305-.349,.562-.609,.773-.287,.229-.621,.408-1.002,.537s-.841,.193-1.378,.193c-.577,0-1.095-.053-1.556-.16-.459-.107-.928-.268-1.404-.479v-1.332h.076c.404,.336,.871,.596,1.401,.779,.53,.182,1.028,.273,1.493,.273,.658,0,1.172-.123,1.539-.371,.367-.246,.551-.576,.551-.988,0-.354-.088-.615-.262-.783-.173-.169-.438-.299-.791-.393-.27-.072-.561-.131-.873-.178-.313-.046-.646-.105-.996-.177-.709-.15-1.234-.407-1.576-.771-.343-.363-.514-.838-.514-1.421,0-.669,.283-1.218,.849-1.646,.565-.428,1.284-.642,2.153-.642,.562,0,1.078,.054,1.547,.161,.47,.107,.885,.239,1.246,.397v1.257h-.074c-.305-.258-.705-.472-1.201-.642s-1.004-.256-1.522-.256c-.569,0-1.026,.119-1.372,.355s-.519,.54-.519,.912c0,.334,.086,.595,.258,.785,.172,.189,.475,.334,.907,.435,.229,.05,.556,.11,.979,.183,.422,.072,.78,.145,1.074,.221,.594,.157,1.041,.395,1.342,.714s.451,.765,.451,1.337v.003Z"/><path class="cls-2" d="M115.851,13.946c-.19,.05-.396,.091-.62,.124-.225,.031-.424,.048-.6,.048-.611,0-1.077-.165-1.396-.494-.318-.329-.478-.857-.478-1.585v-3.189h-.683v-.85h.683v-1.724h1.01v1.724h2.084v.85h-2.084v2.733c0,.315,.007,.562,.021,.738,.015,.178,.064,.343,.15,.497,.079,.143,.187,.248,.325,.314s.348,.1,.631,.1c.164,0,.336-.024,.516-.073,.18-.048,.309-.089,.387-.12h.054v.907Z"/><path class="cls-2" d="M122.043,14h-1.01v-.666c-.34,.269-.666,.475-.977,.617-.312,.144-.656,.215-1.031,.215-.631,0-1.121-.191-1.473-.577-.351-.385-.525-.95-.525-1.694v-3.895h1.01v3.416c0,.305,.014,.565,.043,.782,.028,.216,.089,.401,.182,.556,.098,.158,.223,.271,.377,.344,.153,.072,.377,.107,.671,.107,.261,0,.547-.068,.856-.204,.311-.136,.6-.31,.867-.521V8h1.01v6Z"/><path class="cls-2" d="M128.896,14h-1.01v-.629c-.289,.251-.592,.446-.907,.586s-.657,.209-1.026,.209c-.716,0-1.284-.275-1.705-.826-.42-.552-.631-1.316-.631-2.294,0-.509,.072-.962,.218-1.358,.145-.398,.341-.736,.588-1.016,.243-.271,.527-.48,.852-.623,.323-.143,.659-.215,1.007-.215,.314,0,.594,.033,.838,.1s.5,.169,.768,.309v-2.6h1.01V14h-.002Zm-1.01-1.477v-3.443c-.271-.121-.516-.206-.73-.252-.215-.047-.449-.07-.703-.07-.566,0-1.006,.197-1.321,.591s-.473,.952-.473,1.676c0,.712,.122,1.254,.365,1.625,.243,.37,.634,.556,1.171,.556,.287,0,.576-.063,.87-.19,.294-.128,.567-.291,.821-.491v-.002Z"/><path class="cls-2" d="M131.969,6.996h-1.139v-1.047h1.139v1.047Zm-.064,7.004h-1.01v-6h1.01v6Z"/><path class="cls-2" d="M139.016,11.003c0,.978-.25,1.749-.752,2.315-.501,.565-1.172,.848-2.014,.848-.849,0-1.522-.282-2.022-.848-.499-.566-.749-1.338-.749-2.315s.25-1.75,.749-2.317c.5-.568,1.174-.852,2.022-.852,.842,0,1.513,.283,2.014,.852,.502,.567,.752,1.34,.752,2.317Zm-1.041,0c0-.776-.152-1.354-.457-1.732s-.727-.566-1.268-.566c-.548,0-.973,.188-1.275,.566s-.454,.956-.454,1.732c0,.752,.152,1.322,.456,1.711,.305,.388,.729,.583,1.273,.583,.537,0,.959-.193,1.265-.578,.307-.385,.46-.957,.46-1.716Z"/></g><path class="cls-2" d="M18.946,5.523c-.036-.079-.089-.148-.156-.204l-2.625-2.187h0c-.018-.009-.035-.026-.052-.035-.096-.064-.209-.098-.324-.096-.08,0-.159,.017-.233,.049-.074,.032-.14,.077-.196,.135l-.009,.017-4.55,4.926-3.062-2.774-.018-.017c-.106-.095-.243-.148-.385-.149-.126,0-.248,.04-.35,.114l-1.75,1.312c-.074,.054-.135,.125-.176,.207s-.062,.173-.06,.265v5.827c-.001,.092,.019,.183,.06,.265s.101,.153,.176,.207l1.75,1.312h0c.102,.074,.224,.114,.35,.114,.142,0,.279-.054,.385-.149l.018-.018,3.062-2.774,4.55,4.926,.009,.017c.056,.058,.122,.103,.196,.135,.074,.032,.153,.048,.233,.049,.115,.002,.228-.032,.324-.096,.017-.009,.035-.026,.052-.035l2.625-2.187h0c.066-.056,.119-.126,.156-.204,.036-.079,.055-.164,.054-.251V5.774c0-.087-.018-.172-.054-.251ZM6.75,12.52V7.48l2.327,2.52-2.327,2.52Zm6.125-2.52l3.5-3.167v6.335l-3.5-3.167Z"/></svg>