<?xml version="1.0" encoding="UTF-8"?><svg id="Layer_1" xmlns="http://www.w3.org/2000/svg" width="14" height="14" viewBox="0 0 14 14"><defs><style>.cls-1{fill:#fff;}</style></defs><path class="cls-1" d="M13.945,2.377c-.036-.078-.089-.146-.155-.201-.013-.011-.026-.021-.041-.029l-.012-.006L10.873,.134l-.041-.029-.012-.006c-.114-.078-.253-.111-.39-.095-.137,.016-.264,.081-.357,.183q-.006,.006-.012,.006l-.006,.012L6.043,4.69,3.331,1.925c0-.006-.006-.006-.012-.012l-.004-.008-.008-.004c-.107-.097-.246-.151-.391-.152-.126,0-.249,.04-.35,.117L.309,3.564l-.076,.052c-.072,.054-.131,.125-.172,.206C.021,3.904,0,3.993,0,4.083v5.833C0,10.007,.021,10.096,.062,10.177c.041,.081,.099,.151,.172,.206l.076,.052,2.258,1.698c.101,.076,.224,.117,.35,.117,.145,0,.284-.054,.391-.152l.008-.004,.004-.008c.006-.006,.012-.006,.012-.012l2.713-2.765,4.013,4.486,.006,.012q.006,0,.012,.006c.093,.102,.22,.167,.357,.183,.137,.016,.275-.018,.39-.095l.012-.006,.041-.029,2.864-2.007,.012-.006c.015-.008,.028-.018,.041-.029,.066-.055,.119-.123,.155-.201,.036-.078,.055-.162,.055-.248V2.625c0-.086-.018-.171-.055-.248ZM2.333,8.837v-3.675l1.645,1.837-1.645,1.837Zm5.979-1.837l2.771-2.829v5.658l-2.771-2.829Z"/></svg>