<?xml version="1.0" encoding="UTF-8"?><svg id="Layer_1" xmlns="http://www.w3.org/2000/svg" width="14" height="14" viewBox="0 0 14 14"><defs><style>.cls-1{fill:#fff;}</style></defs><path class="cls-1" d="M13.505,1.514L10.622,.127c-.334-.161-.733-.093-.994,.169h0L4.11,5.331,1.706,3.506c-.224-.17-.537-.156-.745,.033l-.771,.701c-.254,.231-.254,.631,0,.863l2.084,1.902L.19,8.907c-.254,.232-.254,.632,0,.863l.771,.701c.208,.189,.521,.203,.745,.033l2.403-1.824,5.518,5.034c.164,.164,.383,.242,.605,.245,.132,.002,.265-.016,.39-.076l2.882-1.387c.303-.146,.495-.452,.495-.789V2.303c0-.336-.193-.643-.495-.789ZM6.315,7.005l4.187-3.178v6.356l-4.187-3.178Z"/></svg>